<mxGraphModel dx="0" dy="0" grid="1" gridSize="10" guides="1" tooltips="1" connect="1" arrows="1" fold="1" page="0" pageScale="1" background="none" math="0" shadow="0">
  <root>
    <mxCell id="0" />
    <mxCell id="1" parent="0" />
    <mxCell id="node2" parent="1" vertex="1" value="&lt;p style=&quot;margin:0px;margin-top:4px;text-align:center;&quot;&gt;&lt;b&gt;PresentacionDistribucio&lt;/b&gt;&lt;/p&gt;&lt;hr size=&quot;1&quot;/&gt;&lt;p style=&quot;margin:0 0 0 4px;line-height:1.6;&quot;&gt;- controladorPersistenciaDistribucio: ControladorPersistenciaDistribucio&lt;br/&gt;- controladorDistribucio: ControladorDistribucio&lt;/p&gt;&lt;hr size=&quot;1&quot;/&gt;&lt;p style=&quot;margin:0 0 0 4px;line-height:1.6;&quot;&gt;- mostrarFormularioConsultarProductos(): void&lt;br/&gt;- cargarDistribuciones(): void&lt;br/&gt;- mostrarFormularioAgregarProducto(): void&lt;br/&gt;- mostrarDistribucion(): void&lt;br/&gt;- mostrarFormularioModificarSimilitudes(): void&lt;br/&gt;- mostrarFormularioConsultarSimilitudes(): void&lt;br/&gt;- mostrarFormularioCalcularDistribucion(): void&lt;br/&gt;- mostrarMatrizResultadosEditable(String[][], String): void&lt;br/&gt;- modificarPosicionProductos(): void&lt;br/&gt;- mostrarFormularioCrearDistribucionInicial(): void&lt;br/&gt;+ main(String[]): void&lt;br/&gt;- mostrarMatrizResultados(String[][], String): void&lt;br/&gt;- guardarDistribuciones(): void&lt;br/&gt;- mostrarFormularioModificarProducto(): void&lt;br/&gt;- mostrarFormularioEliminarProducto(): void&lt;br/&gt;- createCenteredLabel(String): JLabel&lt;br/&gt;- mostrarMenuPrincipal(): void&lt;/p&gt;" style="verticalAlign=top;align=left;overflow=fill;fontSize=14;fontFamily=Helvetica;html=1;rounded=0;shadow=0;comic=0;labelBackgroundColor=none;strokeWidth=1;">
      <mxGeometry x="382" y="551" width="482" height="496" as="geometry" />
    </mxCell>
    <mxCell id="node1" parent="1" vertex="1" value="&lt;p style=&quot;margin:0px;margin-top:4px;text-align:center;&quot;&gt;&lt;b&gt;PresentacionPerfil&lt;/b&gt;&lt;/p&gt;&lt;hr size=&quot;1&quot;/&gt;&lt;p style=&quot;margin:0 0 0 4px;line-height:1.6;&quot;&gt;- perfiles: Map&amp;lt;String, ControladorPerfil&amp;gt;&lt;br/&gt;- perfilActual: ControladorPerfil&lt;br/&gt;- controladorPersistenciaPerfil: ControladorPersistenciaPerfil&lt;/p&gt;&lt;hr size=&quot;1&quot;/&gt;&lt;p style=&quot;margin:0 0 0 4px;line-height:1.6;&quot;&gt;- mostrarFormularioCargarPerfil(): void&lt;br/&gt;- mostrarMenuPrincipal(): void&lt;br/&gt;- mostrarFormularioEditarPerfil(): void&lt;br/&gt;+ main(String[]): void&lt;br/&gt;- mostrarFormularioEditarPerfil(ControladorPerfil): void&lt;br/&gt;- mostrarFormularioCrearPerfil(): void&lt;br/&gt;- mostrarFormularioBorrarPerfil(): void&lt;br/&gt;- cargarDatos(): void&lt;br/&gt;- guardarDatos(): void&lt;/p&gt;" style="verticalAlign=top;align=left;overflow=fill;fontSize=14;fontFamily=Helvetica;html=1;rounded=0;shadow=0;comic=0;labelBackgroundColor=none;strokeWidth=1;">
      <mxGeometry x="396" y="1166" width="414" height="328" as="geometry" />
    </mxCell>
    <mxCell id="node3" parent="1" vertex="1" value="&lt;p style=&quot;margin:0px;margin-top:4px;text-align:center;&quot;&gt;&lt;b&gt;PresentacionPrestatgeria&lt;/b&gt;&lt;/p&gt;&lt;hr size=&quot;1&quot;/&gt;&lt;p style=&quot;margin:0 0 0 4px;line-height:1.6;&quot;&gt;- prestatgeria: Map&amp;lt;String, ControladorPrestatgeria&amp;gt;&lt;br/&gt;- prestatgeriaActual: Prestatgeria&lt;br/&gt;- controladorPersistenciaPrestatgeria: ControladorPersistenciaPrestatgeria&lt;br/&gt;- perfilActual: Perfil&lt;/p&gt;&lt;hr size=&quot;1&quot;/&gt;&lt;p style=&quot;margin:0 0 0 4px;line-height:1.6;&quot;&gt;- mostrarFormularioBorrarPrestatgeria(): void&lt;br/&gt;- guardarDatos(): void&lt;br/&gt;- mostrarMenuPrincipal(): void&lt;br/&gt;+ main(String[]): void&lt;br/&gt;- cargarDatos(): void&lt;br/&gt;- mostrarFormularioCargarPrestatgeria(): void&lt;br/&gt;- mostrarFormularioEditarPrestatgeria(): void&lt;br/&gt;- mostrarFormularioCrearPrestatgeria(): void&lt;/p&gt;" style="verticalAlign=top;align=left;overflow=fill;fontSize=14;fontFamily=Helvetica;html=1;rounded=0;shadow=0;comic=0;labelBackgroundColor=none;strokeWidth=1;">
      <mxGeometry x="-232" y="460" width="502" height="328" as="geometry" />
    </mxCell>
    <mxCell id="node0" parent="1" vertex="1" value="&lt;p style=&quot;margin:0px;margin-top:4px;text-align:center;&quot;&gt;&lt;b&gt;Presentacion_Main&lt;/b&gt;&lt;/p&gt;&lt;hr size=&quot;1&quot;/&gt;&lt;p style=&quot;margin:0 0 0 4px;line-height:1.6;&quot;&gt;- perfiles: Map&amp;lt;String, ControladorPerfil&amp;gt;&lt;br/&gt;- perfilActual: ControladorPerfil&lt;br/&gt;- controladorPersistenciaMain: ControladorPersistenciaMain&lt;br/&gt;- controladorDistribucio: ControladorDistribucio&lt;br/&gt;- prestatgeria: Map&amp;lt;String, ControladorPrestatgeria&amp;gt;&lt;br/&gt;- prestatgeriaActual: Prestatgeria&lt;/p&gt;&lt;hr size=&quot;1&quot;/&gt;&lt;p style=&quot;margin:0 0 0 4px;line-height:1.6;&quot;&gt;- mostrarFormularioEditarPrestatgeria(): void&lt;br/&gt;- mostrarFormularioAgregarProducto(): void&lt;br/&gt;- mostrarFormularioCrearPerfil(): void&lt;br/&gt;- mostrarFormularioEditarPerfil(ControladorPerfil): void&lt;br/&gt;- mostrarMatrizResultadosEditable(String[][], String): void&lt;br/&gt;- mostrarMenuPrincipal(): void&lt;br/&gt;- mostrarFormularioBorrarPrestatgeria(): void&lt;br/&gt;- mostrarFormularioCalcularDistribucion(): void&lt;br/&gt;- mostrarFormularioModificarProducto(): void&lt;br/&gt;- mostrarFormularioConsultarProductos(): void&lt;br/&gt;- mostrarMenuPrincipalDistribucio(): void&lt;br/&gt;- cargarDatos(): void&lt;br/&gt;- mostrarFormularioEditarPerfil(): void&lt;br/&gt;- createCenteredLabel(String): JLabel&lt;br/&gt;- mostrarFormularioCargarPerfil(): void&lt;br/&gt;- mostrarFormularioConsultarSimilitudes(): void&lt;br/&gt;- mostrarFormularioCargarPrestatgeria(): void&lt;br/&gt;- mostrarDistribucion(): void&lt;br/&gt;- mostrarFormularioModificarSimilitudes(): void&lt;br/&gt;- modificarPosicionProductos(): void&lt;br/&gt;+ main(String[]): void&lt;br/&gt;- mostrarMenuPrincipalPrestatgeria(): void&lt;br/&gt;- mostrarFormularioCrearPrestatgeria(): void&lt;br/&gt;- mostrarFormularioEliminarProducto(): void&lt;br/&gt;- guardarDatos(): void&lt;br/&gt;- mostrarFormularioBorrarPerfil(): void&lt;br/&gt;- convertirYAsignarPrestatgerias(): void&lt;br/&gt;- crearDistribucionInicial(): void&lt;br/&gt;- mostrarMatrizResultados(String[][], String): void&lt;/p&gt;" style="verticalAlign=top;align=left;overflow=fill;fontSize=14;fontFamily=Helvetica;html=1;rounded=0;shadow=0;comic=0;labelBackgroundColor=none;strokeWidth=1;">
      <mxGeometry x="-122" y="890" width="410" height="880" as="geometry" />
    </mxCell>
  </root>
</mxGraphModel>